<svg xmlns="http://www.w3.org/2000/svg" viewBox="0 0 601.1 70.6" width="601" height="71" role="img" aria-label="Sunnah Remedies"><g transform="translate(8,50.68)" fill="#F6F3EE"><g transform="translate(0.000,0) scale(0.04400,-0.04400)"><path d="M69 0 54 255H93Q107 161 169.5 106.0Q232 51 322 51Q397 51 443.0 85.5Q489 120 489 175Q489 207 474.5 229.0Q460 251 419.5 272.5Q379 294 301 323Q224 353 173.0 389.0Q122 425 97.0 470.0Q72 515 72 568Q72 631 103.5 678.5Q135 726 190.5 753.0Q246 780 319 780Q418 780 504 716L522 766H546L557 550H518Q494 632 443.0 675.5Q392 719 325 719Q264 719 225.0 688.5Q186 658 186 610Q186 582 199.5 561.5Q213 541 250.0 521.5Q287 502 356 476Q449 441 507.0 402.5Q565 364 591.5 319.5Q618 275 618 219Q618 152 580.0 100.0Q542 48 475.0 19.0Q408 -10 320 -10Q261 -10 212.0 6.5Q163 23 113 60L93 0Z"/></g><g transform="translate(34.172,0) scale(0.04400,-0.04400)"><path d="M757 522V310Q757 197 723.5 126.5Q690 56 619.0 23.0Q548 -10 433 -10Q326 -10 257.0 19.5Q188 49 155.5 112.0Q123 175 123 273V547Q123 599 121.5 630.0Q120 661 116.0 678.5Q112 696 105 706Q96 720 79.0 725.0Q62 730 27 730V770H386V730Q344 730 324.0 725.5Q304 721 293 708Q280 692 275.0 658.5Q270 625 270 547V285Q270 172 319.0 117.0Q368 62 468 62Q572 62 623.0 119.0Q674 176 674 291V522Q674 605 668.0 644.5Q662 684 645 703Q632 717 609.5 723.5Q587 730 548 730V770H872V730Q835 730 815.0 724.5Q795 719 784 705Q769 686 763.0 645.5Q757 605 757 522Z"/></g><g transform="translate(77.892,0) scale(0.04400,-0.04400)"><path d="M670 -10 227 621H223V191Q223 125 230.5 93.5Q238 62 260.5 52.0Q283 42 327 40V0H30V40Q79 42 103.5 52.0Q128 62 136.5 92.0Q145 122 145 184V586Q145 643 137.5 673.0Q130 703 107.5 715.5Q85 728 40 730V770H319L722 192H726V579Q726 645 718.5 676.5Q711 708 689.0 718.5Q667 729 622 730V770H919V730Q870 729 845.5 718.5Q821 708 812.5 678.0Q804 648 804 586V-10Z"/></g><g transform="translate(124.252,0) scale(0.04400,-0.04400)"><path d="M670 -10 227 621H223V191Q223 125 230.5 93.5Q238 62 260.5 52.0Q283 42 327 40V0H30V40Q79 42 103.5 52.0Q128 62 136.5 92.0Q145 122 145 184V586Q145 643 137.5 673.0Q130 703 107.5 715.5Q85 728 40 730V770H319L722 192H726V579Q726 645 718.5 676.5Q711 708 689.0 718.5Q667 729 622 730V770H919V730Q870 729 845.5 718.5Q821 708 812.5 678.0Q804 648 804 586V-10Z"/></g><g transform="translate(170.612,0) scale(0.04400,-0.04400)"><path d="M-13 0V40Q35 45 60.0 61.5Q85 78 102 121L365 780H439L678 196Q699 145 714.0 115.5Q729 86 745.0 71.0Q761 56 782.5 50.0Q804 44 838 41V0H460V41Q508 43 529.0 51.0Q550 59 550 83Q550 97 543.0 119.5Q536 142 524 173L501 233H218Q194 179 182.5 143.0Q171 107 171 86Q171 56 193.5 48.0Q216 40 261 40V0ZM241 293H479L364 596H360Z"/></g><g transform="translate(211.208,0) scale(0.04400,-0.04400)"><path d="M35 0V40Q80 42 102.5 50.5Q125 59 132.5 83.0Q140 107 140 154V616Q140 663 133.5 686.5Q127 710 107.0 719.0Q87 728 46 730V770H391V730Q346 729 324.0 719.5Q302 710 294.5 685.0Q287 660 287 609V425H658V616Q658 663 650.5 686.5Q643 710 620.5 719.0Q598 728 553 730V770H899V730Q859 729 839.0 719.5Q819 710 812.0 685.0Q805 660 805 609V161Q805 110 812.5 84.5Q820 59 842.5 50.5Q865 42 910 40V0H543V40Q592 42 616.5 50.5Q641 59 649.5 83.0Q658 107 658 154V363H287V161Q287 110 295.0 84.5Q303 59 327.5 50.5Q352 42 401 40V0Z"/></g><g transform="translate(274.492,0) scale(0.04400,-0.04400)"><path d="M695 577Q695 494 647.0 438.0Q599 382 494 363L726 97Q750 69 783.0 54.5Q816 40 850 40V0H613L365 304Q349 324 335.0 335.0Q321 346 309.5 350.5Q298 355 287 355V159Q287 110 297.0 84.0Q307 58 338.0 49.0Q369 40 432 40V0H35V40Q79 40 101.5 49.0Q124 58 132.0 82.5Q140 107 140 154V616Q140 663 133.5 686.5Q127 710 107.0 719.0Q87 728 46 730V770H392Q536 770 615.5 719.0Q695 668 695 577ZM287 697V415H352Q446 415 492.5 452.0Q539 489 539 572Q539 636 500.0 675.0Q461 714 392 714H305Q287 714 287 697Z"/></g><g transform="translate(315.352,0) scale(0.04400,-0.04400)"><path d="M287 680V426Q351 426 390.0 430.0Q429 434 450.5 446.5Q472 459 481.5 483.5Q491 508 495 548H532V255H495Q489 296 478.5 320.0Q468 344 447.0 355.5Q426 367 388.0 371.0Q350 375 287 375V169Q287 126 303.0 101.0Q319 76 356.5 65.5Q394 55 458 55Q534 55 579.5 70.0Q625 85 650.0 123.0Q675 161 689 229H729L713 0H35V40Q80 42 102.5 50.5Q125 59 132.5 83.0Q140 107 140 154V616Q140 663 133.0 686.5Q126 710 106.0 719.0Q86 728 46 730V770H678L685 574H642Q634 630 613.0 661.0Q592 692 550.5 704.5Q509 717 438 717H325Q300 717 293.5 710.5Q287 704 287 680Z"/></g><g transform="translate(353.968,0) scale(0.04400,-0.04400)"><path d="M506 -10 228 652H224V191Q224 125 232.0 93.5Q240 62 264.5 52.0Q289 42 338 40V0H30V40Q80 42 104.5 52.0Q129 62 137.5 92.0Q146 122 146 184V586Q146 643 138.5 674.0Q131 705 108.5 717.5Q86 730 41 730V770H344L577 187H581L812 770H1104V730Q1060 730 1037.5 717.5Q1015 705 1008.0 672.5Q1001 640 1001 579V191Q1001 125 1009.0 93.5Q1017 62 1041.5 52.0Q1066 42 1115 40V0H739V40Q789 42 813.5 52.0Q838 62 846.0 92.0Q854 122 854 184V652H849L580 -10Z"/></g><g transform="translate(409.348,0) scale(0.04400,-0.04400)"><path d="M287 680V426Q351 426 390.0 430.0Q429 434 450.5 446.5Q472 459 481.5 483.5Q491 508 495 548H532V255H495Q489 296 478.5 320.0Q468 344 447.0 355.5Q426 367 388.0 371.0Q350 375 287 375V169Q287 126 303.0 101.0Q319 76 356.5 65.5Q394 55 458 55Q534 55 579.5 70.0Q625 85 650.0 123.0Q675 161 689 229H729L713 0H35V40Q80 42 102.5 50.5Q125 59 132.5 83.0Q140 107 140 154V616Q140 663 133.0 686.5Q126 710 106.0 719.0Q86 728 46 730V770H678L685 574H642Q634 630 613.0 661.0Q592 692 550.5 704.5Q509 717 438 717H325Q300 717 293.5 710.5Q287 704 287 680Z"/></g><g transform="translate(447.964,0) scale(0.04400,-0.04400)"><path d="M35 0V40Q79 42 101.5 50.5Q124 59 132.0 83.0Q140 107 140 154V616Q140 663 133.5 686.5Q127 710 108.0 719.0Q89 728 51 730V770H431Q527 770 608.0 740.5Q689 711 748.0 657.5Q807 604 840.0 531.0Q873 458 873 372Q873 290 842.5 222.0Q812 154 755.5 104.0Q699 54 622.0 27.0Q545 0 452 0ZM434 61Q565 61 635.5 140.5Q706 220 706 370Q706 477 672.5 552.5Q639 628 577.0 668.5Q515 709 429 709H304Q287 709 287 692V175Q287 61 434 61Z"/></g><g transform="translate(493.400,0) scale(0.04400,-0.04400)"><path d="M36 0V40Q81 42 103.5 52.0Q126 62 133.5 92.0Q141 122 141 184V586Q141 643 134.5 673.0Q128 703 107.5 715.5Q87 728 46 730V770H383V730Q342 728 321.5 715.5Q301 703 294.5 673.0Q288 643 288 586V184Q288 122 295.5 92.0Q303 62 325.5 52.0Q348 42 393 40V0Z"/></g><g transform="translate(517.276,0) scale(0.04400,-0.04400)"><path d="M287 680V426Q351 426 390.0 430.0Q429 434 450.5 446.5Q472 459 481.5 483.5Q491 508 495 548H532V255H495Q489 296 478.5 320.0Q468 344 447.0 355.5Q426 367 388.0 371.0Q350 375 287 375V169Q287 126 303.0 101.0Q319 76 356.5 65.5Q394 55 458 55Q534 55 579.5 70.0Q625 85 650.0 123.0Q675 161 689 229H729L713 0H35V40Q80 42 102.5 50.5Q125 59 132.5 83.0Q140 107 140 154V616Q140 663 133.0 686.5Q126 710 106.0 719.0Q86 728 46 730V770H678L685 574H642Q634 630 613.0 661.0Q592 692 550.5 704.5Q509 717 438 717H325Q300 717 293.5 710.5Q287 704 287 680Z"/></g><g transform="translate(555.892,0) scale(0.04400,-0.04400)"><path d="M69 0 54 255H93Q107 161 169.5 106.0Q232 51 322 51Q397 51 443.0 85.5Q489 120 489 175Q489 207 474.5 229.0Q460 251 419.5 272.5Q379 294 301 323Q224 353 173.0 389.0Q122 425 97.0 470.0Q72 515 72 568Q72 631 103.5 678.5Q135 726 190.5 753.0Q246 780 319 780Q418 780 504 716L522 766H546L557 550H518Q494 632 443.0 675.5Q392 719 325 719Q264 719 225.0 688.5Q186 658 186 610Q186 582 199.5 561.5Q213 541 250.0 521.5Q287 502 356 476Q449 441 507.0 402.5Q565 364 591.5 319.5Q618 275 618 219Q618 152 580.0 100.0Q542 48 475.0 19.0Q408 -10 320 -10Q261 -10 212.0 6.5Q163 23 113 60L93 0Z"/></g></g></svg>