<svg xmlns="http://www.w3.org/2000/svg" viewBox="0 0 898.5 260" width="898" height="260" role="img" aria-label="Sunnah Remedies"><g transform="translate(40,40.0) scale(0.9375)"><rect width="192" height="192" rx="42" fill="#0E3B2E"/><g transform="translate(0.000000,192.000000) scale(0.016667,-0.016667)" fill="#F6F3EE"><path d="M5595 11261 c-16 -4 -43 -15 -60 -23 -16 -9 -48 -21 -70 -27 -34 -9
-169 -99 -213 -143 -41 -40 -134 -178 -143 -213 -6 -22 -20 -58 -32 -80 -18
-34 -22 -64 -26 -202 -5 -126 -9 -166 -21 -177 -8 -8 -46 -20 -85 -26 -38 -6
-84 -20 -101 -31 -18 -10 -58 -24 -90 -30 -35 -6 -70 -21 -87 -35 -16 -13 -37
-24 -46 -24 -10 0 -36 -12 -57 -26 -21 -15 -55 -31 -74 -37 -19 -5 -48 -20
-63 -33 -16 -13 -35 -24 -42 -24 -7 0 -27 -11 -43 -25 -17 -14 -45 -32 -64
-40 -18 -9 -69 -45 -113 -80 -44 -36 -98 -77 -120 -92 -91 -60 -430 -427 -498
-539 -19 -32 -52 -80 -92 -133 -14 -19 -25 -42 -25 -51 0 -10 -7 -24 -17 -31
-9 -8 -25 -34 -36 -59 -11 -25 -28 -56 -38 -69 -11 -13 -19 -31 -19 -40 0 -9
-16 -47 -35 -85 -19 -39 -35 -76 -35 -83 0 -7 -13 -42 -30 -76 -16 -35 -30
-77 -30 -94 0 -17 -11 -52 -25 -78 -15 -28 -30 -77 -35 -119 -5 -39 -18 -98
-30 -131 -13 -37 -24 -106 -30 -180 -5 -66 -16 -152 -24 -191 -8 -39 -13 -87
-10 -106 3 -19 0 -56 -8 -83 -11 -41 -12 -340 -8 -1731 l5 -1681 37 -55 c31
-47 43 -57 82 -67 116 -29 211 2 259 84 9 15 14 452 18 1705 4 1060 11 1715
17 1765 6 44 16 150 22 235 9 122 17 168 36 215 14 33 29 91 34 128 6 38 17
82 26 98 8 17 21 62 29 101 7 41 21 79 33 91 11 12 25 40 31 63 6 22 20 49 31
59 11 10 23 33 26 52 4 19 17 47 29 61 13 15 28 46 34 68 6 23 20 49 31 59 11
10 20 24 20 32 0 7 15 29 33 47 17 19 48 57 67 85 19 29 46 65 60 80 14 15 41
47 60 71 37 45 146 156 202 204 166 146 239 203 281 221 19 8 39 21 46 29 8 9
31 21 52 26 21 6 51 21 66 34 15 13 39 27 53 31 14 4 41 17 60 30 19 13 51 26
70 30 19 4 49 15 65 26 17 10 61 23 99 29 37 6 90 22 117 35 82 42 120 35 224
-44 42 -32 48 -36 135 -71 87 -35 117 -40 250 -40 133 0 163 5 250 40 87 35
93 39 135 71 104 78 145 87 218 45 24 -14 74 -29 116 -36 41 -6 89 -19 105
-29 17 -11 47 -22 66 -26 19 -4 55 -20 79 -36 25 -16 50 -29 57 -29 7 0 25
-11 41 -24 16 -13 47 -29 70 -35 22 -6 46 -18 54 -27 7 -8 27 -21 46 -29 42
-18 115 -75 281 -221 56 -48 165 -159 202 -204 19 -24 46 -56 60 -71 14 -15
41 -51 60 -80 19 -28 50 -66 68 -85 17 -18 32 -40 32 -47 0 -8 9 -22 20 -32
11 -10 25 -38 31 -61 6 -24 20 -51 30 -60 11 -9 24 -35 30 -58 6 -22 22 -53
35 -69 13 -16 24 -36 24 -46 0 -10 13 -37 29 -62 16 -25 31 -65 35 -92 3 -27
15 -70 26 -95 12 -26 26 -80 31 -122 6 -41 21 -97 34 -125 19 -40 25 -80 35
-205 6 -85 16 -191 21 -235 8 -53 13 -651 18 -1765 4 -1253 9 -1690 18 -1705
48 -82 143 -113 259 -84 39 10 51 20 82 67 l37 55 -1 1701 c-1 936 -3 1739 -7
1786 -3 47 -10 107 -16 134 -7 27 -16 103 -21 170 -6 75 -17 144 -30 181 -12
33 -25 92 -30 131 -5 42 -20 91 -35 119 -14 26 -25 62 -25 79 0 18 -9 50 -20
71 -12 22 -30 67 -40 99 -11 33 -27 67 -36 77 -8 9 -21 40 -29 69 -8 29 -20
59 -28 69 -8 9 -23 36 -34 61 -11 25 -27 51 -36 59 -10 7 -17 21 -17 31 0 9
-13 34 -30 55 -16 21 -30 41 -30 46 0 5 -13 23 -29 41 -15 18 -34 45 -42 60
-44 84 -390 457 -486 523 -24 17 -79 58 -122 92 -44 34 -94 69 -113 79 -18 9
-46 27 -61 40 -16 13 -35 24 -42 24 -7 0 -26 11 -42 24 -15 13 -44 28 -63 33
-19 6 -53 22 -74 37 -21 14 -47 26 -57 26 -9 0 -30 11 -46 24 -17 14 -52 29
-87 35 -32 6 -72 20 -90 30 -17 11 -63 25 -101 31 -39 6 -77 18 -85 26 -12 11
-16 52 -21 177 -5 148 -8 167 -32 217 -15 30 -27 62 -27 71 0 9 -12 33 -27 53
-16 20 -44 59 -63 87 -44 64 -55 75 -119 119 -28 19 -67 47 -87 63 -20 15 -44
27 -53 27 -9 0 -41 12 -71 27 -51 25 -65 27 -210 29 -85 2 -168 -1 -185 -5z
m276 -409 c13 -10 44 -30 69 -44 29 -17 54 -42 69 -70 14 -23 33 -54 43 -67
25 -32 26 -152 1 -172 -13 -11 -73 -14 -293 -14 -220 0 -280 3 -293 14 -25 20
-24 140 1 172 10 13 30 44 44 69 17 29 42 54 70 69 23 14 54 33 67 43 34 26
188 26 222 0z"/></g><g transform="translate(0.000000,192.000000) scale(0.016667,-0.016667)" fill="#C7A25A"><path d="M5729 8023 c-8 -10 -23 -29 -32 -43 -61 -92 -129 -189 -146 -210 -11
-14 -21 -28 -21 -33 0 -8 -53 -90 -95 -146 -14 -19 -25 -40 -25 -46 0 -7 -13
-29 -30 -50 -16 -21 -30 -43 -30 -50 0 -7 -10 -25 -22 -41 -31 -38 -62 -88
-98 -159 -45 -86 -72 -135 -98 -175 -12 -19 -22 -42 -22 -50 0 -8 -14 -35 -30
-59 -17 -24 -30 -51 -30 -60 0 -9 -14 -36 -30 -60 -17 -24 -30 -51 -30 -60 0
-9 -11 -36 -24 -61 -13 -25 -29 -65 -36 -90 -7 -25 -20 -56 -30 -71 -10 -14
-26 -54 -34 -90 -8 -35 -24 -82 -36 -104 -11 -21 -20 -53 -20 -70 0 -17 -12
-69 -27 -116 -23 -73 -27 -106 -31 -251 -4 -170 4 -239 44 -356 8 -23 14 -58
14 -76 0 -20 12 -50 30 -77 16 -24 30 -51 30 -60 0 -25 66 -144 116 -209 79
-104 285 -280 328 -280 8 0 28 -11 44 -25 18 -15 53 -30 86 -36 31 -5 77 -20
103 -32 43 -20 64 -22 213 -22 149 0 170 2 213 22 26 12 72 27 103 32 33 6 68
21 86 36 16 14 36 25 44 25 45 0 268 194 330 288 39 59 80 130 100 172 9 19
29 62 45 95 15 33 31 79 34 103 3 24 17 82 30 129 21 73 25 106 25 229 0 141
-5 179 -50 345 -6 20 -10 49 -10 66 0 16 -9 47 -20 68 -12 22 -28 69 -36 104
-8 36 -24 76 -34 90 -10 15 -23 46 -30 71 -7 25 -23 63 -36 86 -13 22 -24 50
-24 61 0 11 -13 40 -30 64 -16 24 -30 51 -30 60 0 9 -13 36 -30 60 -16 24 -30
51 -30 60 0 9 -10 31 -23 50 -22 33 -43 71 -93 171 -14 26 -29 50 -34 53 -6 4
-17 22 -25 42 -8 19 -26 48 -40 65 -14 16 -25 35 -25 42 0 7 -13 30 -30 51
-16 21 -30 43 -30 50 0 6 -11 27 -25 46 -40 54 -95 138 -95 145 0 4 -12 23
-27 43 -51 66 -72 96 -93 131 -41 69 -87 125 -106 128 -11 2 -27 -5 -35 -15z"/><path d="M8788 4015 c-27 -8 -60 -23 -75 -35 -52 -40 -98 -70 -132 -86 -18 -8
-46 -24 -61 -35 -15 -11 -46 -25 -69 -30 -23 -5 -55 -19 -70 -30 -15 -11 -55
-24 -90 -29 -34 -5 -68 -14 -76 -20 -54 -45 -449 -52 -635 -10 -52 11 -134 25
-181 29 -47 5 -116 19 -153 30 -38 12 -94 24 -125 27 -68 7 -250 42 -265 52
-16 9 -253 25 -376 25 -58 0 -178 -4 -267 -10 -132 -9 -170 -15 -197 -31 -18
-11 -57 -25 -85 -31 -28 -6 -64 -20 -79 -31 -15 -10 -48 -24 -74 -30 -25 -5
-68 -21 -94 -35 -26 -14 -57 -25 -69 -25 -12 0 -44 -12 -71 -26 -62 -32 -174
-48 -354 -48 -169 0 -312 18 -365 45 -22 12 -68 25 -103 30 -35 5 -81 18 -103
29 -22 12 -66 26 -97 31 -31 6 -71 19 -88 30 -18 11 -57 24 -88 30 -31 5 -72
19 -90 30 -19 11 -62 24 -96 30 -34 5 -79 18 -99 29 -20 10 -71 23 -113 29
-42 6 -100 21 -130 33 -50 21 -70 22 -334 26 l-281 4 -61 -26 c-33 -14 -86
-29 -117 -32 -34 -4 -71 -16 -92 -31 -19 -13 -49 -27 -67 -30 -30 -6 -81 -33
-149 -80 -18 -13 -48 -30 -67 -39 -131 -61 -193 -190 -141 -292 24 -46 116
-112 157 -112 31 0 146 54 204 95 76 55 111 74 145 81 19 3 45 14 58 24 26 21
71 33 182 50 44 6 96 18 115 25 39 14 195 5 260 -15 19 -6 71 -15 115 -20 44
-5 100 -18 125 -29 25 -11 75 -25 112 -31 37 -5 82 -19 100 -30 18 -10 65 -26
104 -34 40 -8 89 -23 110 -34 22 -10 58 -22 82 -26 24 -4 65 -17 90 -30 26
-13 69 -27 95 -30 26 -4 71 -18 100 -32 29 -13 68 -24 87 -24 20 0 80 -12 135
-27 93 -26 113 -28 290 -28 203 1 314 10 355 30 14 7 51 18 82 24 31 7 67 20
80 30 13 10 47 24 77 30 29 6 64 20 78 31 13 10 50 24 81 31 31 6 69 20 84 30
14 11 59 25 100 33 175 34 267 48 318 49 79 1 221 -11 234 -21 12 -10 134 -28
244 -37 41 -4 94 -15 119 -26 25 -11 89 -24 142 -29 53 -6 119 -16 146 -24 77
-21 162 -35 255 -41 47 -3 119 -10 160 -17 97 -15 265 -15 360 1 41 6 111 15
155 20 47 4 96 16 120 28 22 12 63 24 90 28 28 4 66 18 85 30 19 13 54 28 76
34 23 6 52 19 65 30 13 10 41 23 61 30 20 7 42 19 49 27 7 9 29 24 48 35 69
37 126 86 159 133 26 39 32 58 32 101 0 45 -5 60 -33 97 -53 70 -126 96 -209
73z"/><path d="M3175 3147 c-28 -13 -78 -29 -112 -35 -34 -6 -83 -22 -110 -36 -26
-14 -55 -26 -63 -26 -9 0 -39 -15 -67 -32 -29 -18 -76 -46 -105 -63 -165 -94
-201 -215 -93 -314 51 -47 87 -53 128 -21 14 11 38 26 54 33 15 7 60 34 100
59 40 26 85 50 100 54 15 3 47 17 70 30 23 14 73 28 115 34 40 6 111 20 158
31 94 23 194 21 270 -6 23 -8 81 -19 130 -23 57 -6 104 -17 130 -31 23 -12 71
-25 107 -31 39 -5 78 -18 94 -29 15 -11 58 -25 94 -31 37 -6 80 -17 96 -25 15
-9 58 -22 95 -31 36 -8 78 -24 93 -35 16 -11 56 -24 95 -30 37 -5 82 -17 99
-26 18 -9 73 -22 122 -29 50 -7 112 -22 138 -34 44 -19 66 -22 210 -21 161 0
178 2 377 50 25 6 61 20 80 31 20 10 58 24 85 30 28 6 66 22 85 34 19 13 53
27 75 31 22 4 54 15 70 25 27 16 208 57 355 82 78 12 270 0 349 -24 36 -10
118 -23 181 -28 74 -5 133 -15 166 -28 29 -12 90 -24 140 -28 49 -3 123 -17
164 -31 58 -19 111 -26 238 -34 89 -5 183 -14 208 -19 32 -7 70 -7 125 0 43 6
131 15 197 19 102 7 125 12 164 35 25 14 60 26 79 26 19 0 61 14 94 30 33 16
67 30 76 30 8 0 36 14 62 30 26 17 51 30 56 30 5 0 19 8 32 19 13 10 42 29 64
41 63 35 131 97 149 134 22 47 20 102 -5 142 -31 51 -56 64 -122 64 -60 0 -77
-7 -180 -77 -57 -38 -151 -90 -187 -101 -19 -7 -57 -23 -84 -37 -27 -14 -59
-25 -71 -25 -12 0 -59 -11 -105 -25 -76 -23 -100 -25 -271 -25 -154 0 -211 4
-321 24 -73 13 -162 26 -198 30 -36 3 -101 16 -145 29 -44 13 -114 27 -155 31
-41 4 -115 18 -165 30 -149 39 -361 49 -642 29 -131 -9 -168 -15 -195 -31 -18
-11 -51 -23 -72 -27 -22 -3 -64 -20 -94 -36 -30 -16 -64 -29 -76 -29 -12 0
-40 -9 -61 -20 -22 -11 -61 -27 -86 -34 -25 -8 -64 -23 -86 -34 -106 -55 -567
-53 -696 2 -20 9 -69 23 -107 31 -39 8 -84 22 -100 30 -17 9 -54 20 -82 25
-29 6 -70 19 -91 30 -21 12 -62 25 -90 31 -29 6 -68 20 -87 31 -19 11 -61 24
-93 29 -33 6 -76 18 -96 29 -21 10 -74 24 -120 30 -45 6 -103 21 -129 33 -44
20 -66 22 -302 24 -251 4 -256 3 -305 -20z"/></g></g><g transform="translate(264,148.31)" fill="#0E3B2E"><g transform="translate(0.000,0) scale(0.04600,-0.04600)"><path d="M69 0 54 255H93Q107 161 169.5 106.0Q232 51 322 51Q397 51 443.0 85.5Q489 120 489 175Q489 207 474.5 229.0Q460 251 419.5 272.5Q379 294 301 323Q224 353 173.0 389.0Q122 425 97.0 470.0Q72 515 72 568Q72 631 103.5 678.5Q135 726 190.5 753.0Q246 780 319 780Q418 780 504 716L522 766H546L557 550H518Q494 632 443.0 675.5Q392 719 325 719Q264 719 225.0 688.5Q186 658 186 610Q186 582 199.5 561.5Q213 541 250.0 521.5Q287 502 356 476Q449 441 507.0 402.5Q565 364 591.5 319.5Q618 275 618 219Q618 152 580.0 100.0Q542 48 475.0 19.0Q408 -10 320 -10Q261 -10 212.0 6.5Q163 23 113 60L93 0Z"/></g><g transform="translate(34.498,0) scale(0.04600,-0.04600)"><path d="M757 522V310Q757 197 723.5 126.5Q690 56 619.0 23.0Q548 -10 433 -10Q326 -10 257.0 19.5Q188 49 155.5 112.0Q123 175 123 273V547Q123 599 121.5 630.0Q120 661 116.0 678.5Q112 696 105 706Q96 720 79.0 725.0Q62 730 27 730V770H386V730Q344 730 324.0 725.5Q304 721 293 708Q280 692 275.0 658.5Q270 625 270 547V285Q270 172 319.0 117.0Q368 62 468 62Q572 62 623.0 119.0Q674 176 674 291V522Q674 605 668.0 644.5Q662 684 645 703Q632 717 609.5 723.5Q587 730 548 730V770H872V730Q835 730 815.0 724.5Q795 719 784 705Q769 686 763.0 645.5Q757 605 757 522Z"/></g><g transform="translate(78.978,0) scale(0.04600,-0.04600)"><path d="M670 -10 227 621H223V191Q223 125 230.5 93.5Q238 62 260.5 52.0Q283 42 327 40V0H30V40Q79 42 103.5 52.0Q128 62 136.5 92.0Q145 122 145 184V586Q145 643 137.5 673.0Q130 703 107.5 715.5Q85 728 40 730V770H319L722 192H726V579Q726 645 718.5 676.5Q711 708 689.0 718.5Q667 729 622 730V770H919V730Q870 729 845.5 718.5Q821 708 812.5 678.0Q804 648 804 586V-10Z"/></g><g transform="translate(126.218,0) scale(0.04600,-0.04600)"><path d="M670 -10 227 621H223V191Q223 125 230.5 93.5Q238 62 260.5 52.0Q283 42 327 40V0H30V40Q79 42 103.5 52.0Q128 62 136.5 92.0Q145 122 145 184V586Q145 643 137.5 673.0Q130 703 107.5 715.5Q85 728 40 730V770H319L722 192H726V579Q726 645 718.5 676.5Q711 708 689.0 718.5Q667 729 622 730V770H919V730Q870 729 845.5 718.5Q821 708 812.5 678.0Q804 648 804 586V-10Z"/></g><g transform="translate(173.458,0) scale(0.04600,-0.04600)"><path d="M-13 0V40Q35 45 60.0 61.5Q85 78 102 121L365 780H439L678 196Q699 145 714.0 115.5Q729 86 745.0 71.0Q761 56 782.5 50.0Q804 44 838 41V0H460V41Q508 43 529.0 51.0Q550 59 550 83Q550 97 543.0 119.5Q536 142 524 173L501 233H218Q194 179 182.5 143.0Q171 107 171 86Q171 56 193.5 48.0Q216 40 261 40V0ZM241 293H479L364 596H360Z"/></g><g transform="translate(214.672,0) scale(0.04600,-0.04600)"><path d="M35 0V40Q80 42 102.5 50.5Q125 59 132.5 83.0Q140 107 140 154V616Q140 663 133.5 686.5Q127 710 107.0 719.0Q87 728 46 730V770H391V730Q346 729 324.0 719.5Q302 710 294.5 685.0Q287 660 287 609V425H658V616Q658 663 650.5 686.5Q643 710 620.5 719.0Q598 728 553 730V770H899V730Q859 729 839.0 719.5Q819 710 812.0 685.0Q805 660 805 609V161Q805 110 812.5 84.5Q820 59 842.5 50.5Q865 42 910 40V0H543V40Q592 42 616.5 50.5Q641 59 649.5 83.0Q658 107 658 154V363H287V161Q287 110 295.0 84.5Q303 59 327.5 50.5Q352 42 401 40V0Z"/></g><g transform="translate(278.378,0) scale(0.04600,-0.04600)"><path d="M695 577Q695 494 647.0 438.0Q599 382 494 363L726 97Q750 69 783.0 54.5Q816 40 850 40V0H613L365 304Q349 324 335.0 335.0Q321 346 309.5 350.5Q298 355 287 355V159Q287 110 297.0 84.0Q307 58 338.0 49.0Q369 40 432 40V0H35V40Q79 40 101.5 49.0Q124 58 132.0 82.5Q140 107 140 154V616Q140 663 133.5 686.5Q127 710 107.0 719.0Q87 728 46 730V770H392Q536 770 615.5 719.0Q695 668 695 577ZM287 697V415H352Q446 415 492.5 452.0Q539 489 539 572Q539 636 500.0 675.0Q461 714 392 714H305Q287 714 287 697Z"/></g><g transform="translate(319.868,0) scale(0.04600,-0.04600)"><path d="M287 680V426Q351 426 390.0 430.0Q429 434 450.5 446.5Q472 459 481.5 483.5Q491 508 495 548H532V255H495Q489 296 478.5 320.0Q468 344 447.0 355.5Q426 367 388.0 371.0Q350 375 287 375V169Q287 126 303.0 101.0Q319 76 356.5 65.5Q394 55 458 55Q534 55 579.5 70.0Q625 85 650.0 123.0Q675 161 689 229H729L713 0H35V40Q80 42 102.5 50.5Q125 59 132.5 83.0Q140 107 140 154V616Q140 663 133.0 686.5Q126 710 106.0 719.0Q86 728 46 730V770H678L685 574H642Q634 630 613.0 661.0Q592 692 550.5 704.5Q509 717 438 717H325Q300 717 293.5 710.5Q287 704 287 680Z"/></g><g transform="translate(359.012,0) scale(0.04600,-0.04600)"><path d="M506 -10 228 652H224V191Q224 125 232.0 93.5Q240 62 264.5 52.0Q289 42 338 40V0H30V40Q80 42 104.5 52.0Q129 62 137.5 92.0Q146 122 146 184V586Q146 643 138.5 674.0Q131 705 108.5 717.5Q86 730 41 730V770H344L577 187H581L812 770H1104V730Q1060 730 1037.5 717.5Q1015 705 1008.0 672.5Q1001 640 1001 579V191Q1001 125 1009.0 93.5Q1017 62 1041.5 52.0Q1066 42 1115 40V0H739V40Q789 42 813.5 52.0Q838 62 846.0 92.0Q854 122 854 184V652H849L580 -10Z"/></g><g transform="translate(415.682,0) scale(0.04600,-0.04600)"><path d="M287 680V426Q351 426 390.0 430.0Q429 434 450.5 446.5Q472 459 481.5 483.5Q491 508 495 548H532V255H495Q489 296 478.5 320.0Q468 344 447.0 355.5Q426 367 388.0 371.0Q350 375 287 375V169Q287 126 303.0 101.0Q319 76 356.5 65.5Q394 55 458 55Q534 55 579.5 70.0Q625 85 650.0 123.0Q675 161 689 229H729L713 0H35V40Q80 42 102.5 50.5Q125 59 132.5 83.0Q140 107 140 154V616Q140 663 133.0 686.5Q126 710 106.0 719.0Q86 728 46 730V770H678L685 574H642Q634 630 613.0 661.0Q592 692 550.5 704.5Q509 717 438 717H325Q300 717 293.5 710.5Q287 704 287 680Z"/></g><g transform="translate(454.826,0) scale(0.04600,-0.04600)"><path d="M35 0V40Q79 42 101.5 50.5Q124 59 132.0 83.0Q140 107 140 154V616Q140 663 133.5 686.5Q127 710 108.0 719.0Q89 728 51 730V770H431Q527 770 608.0 740.5Q689 711 748.0 657.5Q807 604 840.0 531.0Q873 458 873 372Q873 290 842.5 222.0Q812 154 755.5 104.0Q699 54 622.0 27.0Q545 0 452 0ZM434 61Q565 61 635.5 140.5Q706 220 706 370Q706 477 672.5 552.5Q639 628 577.0 668.5Q515 709 429 709H304Q287 709 287 692V175Q287 61 434 61Z"/></g><g transform="translate(501.100,0) scale(0.04600,-0.04600)"><path d="M36 0V40Q81 42 103.5 52.0Q126 62 133.5 92.0Q141 122 141 184V586Q141 643 134.5 673.0Q128 703 107.5 715.5Q87 728 46 730V770H383V730Q342 728 321.5 715.5Q301 703 294.5 673.0Q288 643 288 586V184Q288 122 295.5 92.0Q303 62 325.5 52.0Q348 42 393 40V0Z"/></g><g transform="translate(524.834,0) scale(0.04600,-0.04600)"><path d="M287 680V426Q351 426 390.0 430.0Q429 434 450.5 446.5Q472 459 481.5 483.5Q491 508 495 548H532V255H495Q489 296 478.5 320.0Q468 344 447.0 355.5Q426 367 388.0 371.0Q350 375 287 375V169Q287 126 303.0 101.0Q319 76 356.5 65.5Q394 55 458 55Q534 55 579.5 70.0Q625 85 650.0 123.0Q675 161 689 229H729L713 0H35V40Q80 42 102.5 50.5Q125 59 132.5 83.0Q140 107 140 154V616Q140 663 133.0 686.5Q126 710 106.0 719.0Q86 728 46 730V770H678L685 574H642Q634 630 613.0 661.0Q592 692 550.5 704.5Q509 717 438 717H325Q300 717 293.5 710.5Q287 704 287 680Z"/></g><g transform="translate(563.978,0) scale(0.04600,-0.04600)"><path d="M69 0 54 255H93Q107 161 169.5 106.0Q232 51 322 51Q397 51 443.0 85.5Q489 120 489 175Q489 207 474.5 229.0Q460 251 419.5 272.5Q379 294 301 323Q224 353 173.0 389.0Q122 425 97.0 470.0Q72 515 72 568Q72 631 103.5 678.5Q135 726 190.5 753.0Q246 780 319 780Q418 780 504 716L522 766H546L557 550H518Q494 632 443.0 675.5Q392 719 325 719Q264 719 225.0 688.5Q186 658 186 610Q186 582 199.5 561.5Q213 541 250.0 521.5Q287 502 356 476Q449 441 507.0 402.5Q565 364 591.5 319.5Q618 275 618 219Q618 152 580.0 100.0Q542 48 475.0 19.0Q408 -10 320 -10Q261 -10 212.0 6.5Q163 23 113 60L93 0Z"/></g></g></svg>